HIERARCHY
ROOT Hips
{
	OFFSET 0.000000 0.000000 0.000000
	CHANNELS 6 Xposition Yposition Zposition Zrotation Yrotation Xrotation 
	JOINT LHipJoint
	{
		OFFSET 0.000000 0.000000 0.000000
		CHANNELS 3 Zrotation Yrotation Xrotation
		JOINT LeftUpLeg
		{
			OFFSET 1.363060 -1.794630 0.839290
			CHANNELS 3 Zrotation Yrotation Xrotation
			JOINT LeftLeg
			{
				OFFSET 2.448110 -6.726130 0.000000
				CHANNELS 3 Zrotation Yrotation Xrotation
				JOINT LeftFoot
				{
					OFFSET 2.562200 -7.039590 0.000000
					CHANNELS 3 Zrotation Yrotation Xrotation
					JOINT LeftToeBase
					{
						OFFSET 0.157640 -0.433110 2.322550
						CHANNELS 3 Zrotation Yrotation Xrotation
						End Site
						{
							OFFSET 0.000000 0.000000 0.000000
						}
					}
				}
			}
		}
	}
	JOINT RHipJoint
	{
		OFFSET 0.000000 0.000000 0.000000
		CHANNELS 3 Zrotation Yrotation Xrotation
		JOINT RightUpLeg
		{
			OFFSET -1.305520 -1.794630 0.839290
			CHANNELS 3 Zrotation Yrotation Xrotation
			JOINT RightLeg
			{
				OFFSET -2.542530 -6.985550 0.000000
				CHANNELS 3 Zrotation Yrotation Xrotation
				JOINT RightFoot
				{
					OFFSET -2.568260 -7.056230 0.000000
					CHANNELS 3 Zrotation Yrotation Xrotation
					JOINT RightToeBase
					{
						OFFSET -0.164730 -0.452590 2.363150
						CHANNELS 3 Zrotation Yrotation Xrotation
						End Site
						{
							OFFSET 0.000000 0.000000 0.000000
						}
					}
				}
			}
		}
	}
}
MOTION
Frames: 30
Frame Time: 0.008333
3.482646 17.148751 1.910790 -146.876436 -79.701414 155.528972 -10.899741 -0.084805 3.203401 -0.461845 -0.412560 -38.260429 0.267247 1.747661 45.684593 3.235458 17.968714 -8.397184 0.169500 -0.000000 -22.597999 6.923621 -2.184865 4.177459 21.296157 7.155464 -1.333731 4.495235 2.154366 -2.209371 0.315350 4.114489 -7.137911 -179.997900 -0.000000 -5.876300
3.316890 17.136476 1.891304 -148.361725 -79.657398 157.149843 -10.825097 -0.157928 3.331201 -0.656585 -0.462911 -38.940871 0.184625 1.617444 43.573626 3.176323 17.477719 -7.747868 0.399800 0.000000 -23.190300 6.937779 -2.192845 4.127497 21.069400 6.995437 -0.586665 4.470372 2.224551 -2.650704 0.332687 4.381409 -7.485037 -179.992700 0.000000 -6.683900
3.151171 17.122049 1.872643 -149.649685 -79.663232 158.536660 -10.755796 -0.214273 3.447126 -0.907170 -0.477230 -39.544080 0.092658 1.486407 41.385543 3.081331 16.827273 -6.991427 0.641200 -0.000000 -23.890600 6.957583 -2.209503 4.056388 20.844979 6.744186 0.180764 4.443506 2.287465 -3.073250 0.350875 4.660288 -7.832993 -179.990700 0.000001 -7.381700
2.985651 17.105343 1.855081 -150.742206 -79.717241 159.688278 -10.691802 -0.254586 3.550104 -1.209826 -0.465383 -40.060315 -0.011819 1.354937 39.126501 2.950286 16.019508 -6.162388 0.873201 -0.000000 -24.681400 6.983192 -2.234222 3.960341 20.625604 6.397638 0.967550 4.415648 2.340744 -3.461804 0.370880 4.957289 -8.180862 -179.992199 0.000000 -7.914600
2.820518 17.086348 1.838622 -151.678703 -79.817166 160.636902 -10.632472 -0.279393 3.638126 -1.563872 -0.438619 -40.471350 -0.131945 1.223140 36.802120 2.784968 15.066439 -5.294947 1.077200 -0.000001 -25.530800 7.016089 -2.265550 3.832784 20.405633 5.945190 1.777381 4.387263 2.381621 -3.798198 0.394546 5.286867 -8.532099 -179.997800 -0.000000 -8.248200
2.655753 17.064891 1.823809 -152.398554 -79.949076 161.328640 -10.578801 -0.293559 3.715007 -1.944581 -0.400869 -40.789963 -0.267086 1.090373 34.432957 2.588644 13.981448 -4.415767 1.239900 0.000000 -26.450500 7.047323 -2.305298 3.674168 20.211370 5.430074 2.478422 4.364346 2.383256 -3.803623 0.406500 5.632711 -9.029403 179.991600 0.000000 -8.366500
2.491378 17.041012 1.810517 -152.952210 -80.108096 161.809797 -10.529495 -0.298838 3.779262 -2.350698 -0.361312 -41.002052 -0.418193 0.956159 32.029548 2.366872 12.791358 -3.550097 1.352500 0.000000 -27.419800 7.078533 -2.351054 3.479506 20.031940 4.846326 3.077552 4.348041 2.345061 -3.469108 0.406045 6.008037 -9.676088 179.975101 -0.000000 -8.291599
2.327272 17.014712 1.798803 -153.319918 -80.287781 162.073112 -10.484915 -0.302306 3.829772 -2.767872 -0.321498 -41.123112 -0.583951 0.819919 29.613006 2.126277 11.522165 -2.719290 1.411500 -0.000001 -28.411500 7.110859 -2.398006 3.267081 19.862138 4.217328 3.750124 4.334003 2.308204 -3.196907 0.408938 6.389879 -10.263742 179.952400 0.000000 -8.072100
2.162975 16.986017 1.788737 -153.463434 -80.477469 162.096362 -10.444764 -0.308834 3.869945 -3.182232 -0.276467 -41.181792 -0.761671 0.680848 27.206220 1.874155 10.201113 -1.936962 1.418900 -0.000000 -29.430300 7.139654 -2.445753 3.048581 19.714648 3.583258 4.482633 4.322933 2.274626 -2.987300 0.413046 6.754162 -10.799110 179.923600 0.000000 -7.783800
1.998552 16.955172 1.779701 -153.467052 -80.678064 161.957493 -10.406274 -0.318169 3.897821 -3.609663 -0.221383 -41.172283 -0.951209 0.538190 24.816613 1.617684 8.859491 -1.213624 1.380000 0.000000 -30.453300 7.168919 -2.493326 2.819532 19.570813 2.924246 5.279790 4.313312 2.243395 -2.835247 0.421886 7.120747 -11.283473 179.887900 -0.000000 -7.465800
1.833790 16.922380 1.771429 -153.344878 -80.886993 161.676820 -10.367839 -0.331650 3.915140 -4.057540 -0.142917 -41.118638 -1.151112 0.391180 22.456820 1.362735 7.519401 -0.553030 1.302300 0.000000 -31.481601 7.197973 -2.540813 2.586553 19.429738 2.252343 6.125723 4.304750 2.214886 -2.732486 0.434567 7.482245 -11.723825 179.845800 0.000001 -7.171100
1.667454 16.887848 1.764142 -152.990132 -81.093845 161.182710 -10.330247 -0.351542 3.929733 -4.519646 -0.018612 -41.084387 -1.358897 0.238943 20.146411 1.112782 6.188313 0.045746 1.193300 -0.000001 -32.545600 7.218228 -2.590544 2.373728 19.322657 1.634149 6.978421 4.298763 2.191808 -2.666632 0.443747 7.788132 -12.137494 179.801001 0.000000 -6.986900
1.499424 16.851946 1.757274 -152.478589 -81.303459 160.546341 -10.290955 -0.374267 3.940416 -5.026416 0.166553 -41.073251 -1.576247 0.080677 17.882401 0.869788 4.874963 0.587989 1.059900 -0.000000 -33.672400 7.233982 -2.642863 2.179378 19.232062 1.048036 7.829118 4.293695 2.172727 -2.624813 0.450849 8.053359 -12.527613 179.754300 -0.000000 -6.908200
1.329725 16.815056 1.750296 -151.899291 -81.524144 159.845783 -10.247024 -0.395612 3.945131 -5.612000 0.424833 -41.079398 -1.805807 -0.084596 15.660758 0.633972 3.578139 1.074035 0.905800 0.000000 -34.818000 7.252022 -2.698657 1.997069 19.131160 0.449850 8.674564 4.287932 2.155763 -2.598943 0.460049 8.311298 -12.887824 179.704800 -0.000000 -6.901700
1.157361 16.777466 1.743484 -151.187758 -81.750430 159.037337 -10.198710 -0.414613 3.949036 -6.282193 0.768409 -41.140395 -2.047470 -0.257589 13.492518 0.403899 2.284905 1.509934 0.733500 -0.000000 -36.045500 7.268305 -2.760285 1.841349 19.035813 -0.126362 9.486187 4.282162 2.141909 -2.580257 0.467115 8.535809 -13.221956 179.656301 0.000000 -6.940100
0.982334 16.739509 1.736568 -150.422285 -81.988152 158.187691 -10.143568 -0.427815 3.950613 -7.058752 1.193352 -41.240971 -2.302218 -0.438723 11.380899 0.178863 0.988084 1.893756 0.544600 -0.000000 -37.335700 7.289308 -2.828511 1.704720 18.919108 -0.720821 10.268339 4.274828 2.129251 -2.568723 0.477362 8.760590 -13.513290 179.607100 -0.000001 -6.925600
0.804519 16.701471 1.729721 -149.612028 -82.236710 157.303589 -10.080785 -0.434628 3.951250 -7.940348 1.685826 -41.378351 -2.567822 -0.627672 9.342994 -0.041110 -0.318356 2.216605 0.340500 0.000000 -38.659500 7.316485 -2.904184 1.586468 18.773118 -1.340181 11.020909 4.265511 2.116890 -2.567210 0.493382 8.995626 -13.746124 179.557500 -0.000000 -6.764100
0.623879 16.663555 1.722893 -148.821204 -82.498824 156.440119 -10.008871 -0.433808 3.951795 -8.917407 2.214283 -41.527328 -2.839448 -0.823138 7.398049 -0.253420 -1.624492 2.465686 0.126300 -0.000000 -39.987500 7.355496 -2.987646 1.477253 18.571557 -2.019369 11.759585 4.252926 2.103448 -2.590040 0.523093 9.277076 -13.888391 179.504600 0.000000 -6.302200
0.440460 16.625979 1.716378 -148.038489 -82.769659 155.585209 -9.928922 -0.427435 3.955668 -9.951097 2.740111 -41.675400 -3.108247 -1.022370 5.579087 -0.453805 -2.909794 2.619765 -0.089699 0.000000 -41.256200 7.405528 -3.078697 1.375230 18.313757 -2.751465 12.494729 4.237077 2.088531 -2.650458 0.570006 9.608968 -13.916604 179.448600 -0.000000 -5.456300
0.254430 16.588913 1.710350 -147.260048 -83.043230 154.733821 -9.843071 -0.417912 3.966405 -10.987985 3.217729 -41.801990 -3.363031 -1.221153 3.920151 -0.636093 -4.136080 2.658161 -0.294400 0.000000 -42.400300 7.465734 -3.176357 1.276501 17.999384 -3.529316 13.242857 4.217907 2.071824 -2.765173 0.639049 9.996960 -13.805904 179.389800 -0.000000 -4.179200
0.065918 16.552524 1.705042 -146.440892 -83.308894 153.843225 -9.755396 -0.408051 3.988152 -11.962891 3.607562 -41.893490 -3.591923 -1.413655 2.458750 -0.794037 -5.257331 2.564154 -0.473100 0.000000 -43.367100 7.531171 -3.279566 1.178584 17.644890 -4.323182 13.978151 4.198336 2.045587 -2.861685 0.724661 10.429255 -13.585398 179.330800 -0.000000 -2.493200
-0.124525 16.517067 1.699901 -145.736516 -83.567949 153.046584 -9.667736 -0.394415 4.024910 -12.830838 3.869164 -41.895701 -3.784874 -1.594384 1.206286 -0.920002 -6.206973 2.337913 -0.608900 0.000000 -44.082201 7.604544 -3.389396 1.051102 17.219657 -5.167714 14.485730 4.190075 1.957160 -2.417907 0.791894 10.958209 -13.477789 179.269600 0.000000 -0.142500
-0.317176 16.482719 1.695733 -144.885249 -83.794210 152.115353 -9.590020 -0.385280 4.074620 -13.521020 4.006250 -41.855504 -3.934442 -1.753878 0.217012 -1.013138 -6.964410 1.984361 -0.696600 0.000000 -44.567100 7.669486 -3.500436 0.931538 16.809749 -5.929621 14.961998 4.184496 1.854634 -1.891336 0.859238 11.467578 -13.302131 -0.780800 0.000000 -2.323800
-0.511564 16.449733 1.691467 -144.199142 -84.002649 151.335938 -9.522210 -0.373616 4.133447 -14.032291 3.999292 -41.709606 -4.037637 -1.886775 -0.525705 -1.067966 -7.466521 1.542631 -0.729900 -0.000000 -44.801400 7.741151 -3.613254 0.796195 16.339970 -6.696860 15.402553 4.177512 1.725829 -1.226817 0.938205 12.038660 -13.007759 -0.822700 0.000000 -5.435200
-0.708079 16.418368 1.687842 -143.408483 -84.167730 150.467857 -9.473019 -0.363184 4.198261 -14.335811 3.885457 -41.526927 -4.094657 -1.983977 -0.976579 -1.088548 -7.725016 1.049504 -0.718600 0.000000 -44.849501 7.797348 -3.723730 0.677093 15.919762 -7.312770 15.820914 4.170717 1.583821 -0.482574 1.010229 12.535733 -12.655054 -0.842500 0.000000 -8.359400
-0.906741 16.388838 1.684277 -142.670977 -84.298068 149.661889 -9.442739 -0.347564 4.265993 -14.454634 3.673724 -41.296799 -4.108075 -2.041431 -1.151826 -1.074836 -7.717230 0.568656 -0.671300 -0.000000 -44.747700 7.843730 -3.832201 0.569794 15.526612 -7.800788 16.213202 4.160600 1.425035 0.352298 1.078544 12.973028 -12.217378 -0.836799 -0.000000 -11.319400
-1.107930 16.361398 1.680633 -142.026822 -84.397357 148.963903 -9.431996 -0.321992 4.334627 -14.417558 3.384713 -41.036481 -4.082076 -2.056422 -1.065826 -1.029518 -7.444068 0.168240 -0.599700 0.000000 -44.537100 7.879423 -3.938095 0.481374 15.172716 -8.140554 16.579085 4.144494 1.252127 1.260224 1.140271 13.321645 -11.694774 -0.800600 -0.000000 -14.225300
-1.311943 16.336273 1.676515 -141.567477 -84.478076 148.464643 -9.438644 -0.280329 4.403325 -14.271091 3.036650 -40.758115 -4.022326 -2.028799 -0.747147 -0.956013 -6.915629 -0.080746 -0.513600 0.000000 -44.244800 7.908455 -4.041344 0.414297 14.847865 -8.344532 16.912213 4.119011 1.066760 2.231822 1.195114 13.579008 -11.085334 -0.733000 -0.000000 -17.023500
-1.519301 16.313728 1.671577 -141.368233 -84.555171 148.241441 -9.459070 -0.216349 4.470999 -14.074570 2.656596 -40.480038 -3.936579 -1.960361 -0.227344 -0.859931 -6.165272 -0.114765 -0.418500 -0.000000 -43.877600 7.935985 -4.143889 0.372130 14.537076 -8.434286 17.203175 4.079946 0.870360 3.251634 1.243510 13.742675 -10.363261 -0.630300 -0.000001 -19.967300
-1.730515 16.294138 1.665454 -141.468961 -84.644440 148.336125 -9.489099 -0.125278 4.535722 -13.893146 2.281772 -40.229156 -3.834392 -1.854174 0.465631 -0.749475 -5.253067 0.114155 -0.315300 0.000000 -43.427799 7.965377 -4.246376 0.360895 14.233229 -8.421315 17.444715 4.024194 0.667380 4.301705 1.283371 13.804347 -9.539701 -0.495500 -0.000001 -22.911300
